<mxfile host="app.diagrams.net" modified="2021-03-16T03:43:46.379Z" agent="5.0 (Windows NT 10.0; Win64; x64) AppleWebKit/537.36 (KHTML, like Gecko) Chrome/89.0.4389.82 Safari/537.36" etag="Ia4Qfb3pce3xgQ8HRQyV" version="14.4.8" type="github">
  <diagram id="C5RBs43oDa-KdzZeNtuy" name="Page-1">
    <mxGraphModel dx="700" dy="752" grid="0" gridSize="10" guides="1" tooltips="1" connect="1" arrows="1" fold="1" page="1" pageScale="1" pageWidth="827" pageHeight="1169" math="0" shadow="0">
      <root>
        <mxCell id="WIyWlLk6GJQsqaUBKTNV-0" />
        <mxCell id="WIyWlLk6GJQsqaUBKTNV-1" parent="WIyWlLk6GJQsqaUBKTNV-0" />
        <mxCell id="UjEWYEbTMEZOHwxj7fLX-2" style="edgeStyle=orthogonalEdgeStyle;rounded=0;orthogonalLoop=1;jettySize=auto;html=1;exitX=0.5;exitY=1;exitDx=0;exitDy=0;exitPerimeter=0;entryX=0.5;entryY=0;entryDx=0;entryDy=0;" edge="1" parent="WIyWlLk6GJQsqaUBKTNV-1" source="UjEWYEbTMEZOHwxj7fLX-0" target="UjEWYEbTMEZOHwxj7fLX-1">
          <mxGeometry relative="1" as="geometry" />
        </mxCell>
        <mxCell id="UjEWYEbTMEZOHwxj7fLX-0" value="&lt;font style=&quot;font-size: 14px&quot;&gt;开始&lt;/font&gt;" style="strokeWidth=2;html=1;shape=mxgraph.flowchart.terminator;whiteSpace=wrap;" vertex="1" parent="WIyWlLk6GJQsqaUBKTNV-1">
          <mxGeometry x="362" y="69" width="97" height="40" as="geometry" />
        </mxCell>
        <mxCell id="UjEWYEbTMEZOHwxj7fLX-4" style="edgeStyle=orthogonalEdgeStyle;rounded=0;orthogonalLoop=1;jettySize=auto;html=1;exitX=0.5;exitY=1;exitDx=0;exitDy=0;entryX=0.5;entryY=0;entryDx=0;entryDy=0;" edge="1" parent="WIyWlLk6GJQsqaUBKTNV-1" source="UjEWYEbTMEZOHwxj7fLX-1" target="UjEWYEbTMEZOHwxj7fLX-3">
          <mxGeometry relative="1" as="geometry" />
        </mxCell>
        <mxCell id="UjEWYEbTMEZOHwxj7fLX-1" value="&lt;font style=&quot;font-size: 14px&quot;&gt;输入字典oneD、restD，总功率X&lt;/font&gt;" style="shape=parallelogram;html=1;strokeWidth=2;perimeter=parallelogramPerimeter;whiteSpace=wrap;rounded=1;arcSize=12;size=0.23;" vertex="1" parent="WIyWlLk6GJQsqaUBKTNV-1">
          <mxGeometry x="257" y="141" width="314" height="40" as="geometry" />
        </mxCell>
        <mxCell id="UjEWYEbTMEZOHwxj7fLX-6" style="edgeStyle=orthogonalEdgeStyle;rounded=0;orthogonalLoop=1;jettySize=auto;html=1;exitX=0.5;exitY=1;exitDx=0;exitDy=0;" edge="1" parent="WIyWlLk6GJQsqaUBKTNV-1" source="UjEWYEbTMEZOHwxj7fLX-3" target="UjEWYEbTMEZOHwxj7fLX-5">
          <mxGeometry relative="1" as="geometry" />
        </mxCell>
        <mxCell id="UjEWYEbTMEZOHwxj7fLX-3" value="&lt;font style=&quot;font-size: 14px&quot;&gt;初始化正则化参数λ&lt;sub&gt;2&lt;/sub&gt;，稀疏表示Z&lt;sub&gt;1&lt;/sub&gt;&#39;、Z&lt;sub&gt;2&lt;/sub&gt;&lt;/font&gt;&lt;span style=&quot;font-size: 14px&quot;&gt;&#39;&lt;/span&gt;" style="rounded=1;whiteSpace=wrap;html=1;absoluteArcSize=1;arcSize=14;strokeWidth=2;" vertex="1" parent="WIyWlLk6GJQsqaUBKTNV-1">
          <mxGeometry x="233" y="213" width="367" height="40" as="geometry" />
        </mxCell>
        <mxCell id="UjEWYEbTMEZOHwxj7fLX-8" value="" style="edgeStyle=orthogonalEdgeStyle;rounded=0;orthogonalLoop=1;jettySize=auto;html=1;" edge="1" parent="WIyWlLk6GJQsqaUBKTNV-1" source="UjEWYEbTMEZOHwxj7fLX-5" target="UjEWYEbTMEZOHwxj7fLX-7">
          <mxGeometry relative="1" as="geometry" />
        </mxCell>
        <mxCell id="UjEWYEbTMEZOHwxj7fLX-5" value="&lt;font&gt;&lt;font style=&quot;font-size: 14px&quot;&gt;利用非负矩阵分解求解&lt;font&gt;Z&lt;sub&gt;1&lt;/sub&gt;&#39;、Z&lt;sub&gt;2&lt;/sub&gt;&lt;/font&gt;&#39;&lt;br&gt;[Z&lt;sub&gt;1&lt;/sub&gt;&#39;&amp;nbsp; Z&lt;sub&gt;2&lt;/sub&gt;&#39;]&lt;sup&gt;T&lt;/sup&gt; = [Z&lt;sub&gt;1&lt;/sub&gt;&#39;&amp;nbsp; Z&lt;sub&gt;2&lt;/sub&gt;&#39;]T .* (2[oneD restD]&lt;sup&gt;T&lt;/sup&gt;X) ./ (2[oneD restD]&lt;sup&gt;T&lt;/sup&gt;[oneD restD][Z&lt;sub&gt;1&lt;/sub&gt;&#39;&amp;nbsp; Z&lt;sub&gt;2&lt;/sub&gt;&#39;]&lt;sup&gt;T&lt;/sup&gt; + λ&lt;sub&gt;2&lt;/sub&gt;)&lt;/font&gt;&lt;br&gt;&lt;/font&gt;" style="rounded=1;whiteSpace=wrap;html=1;absoluteArcSize=1;arcSize=14;strokeWidth=2;" vertex="1" parent="WIyWlLk6GJQsqaUBKTNV-1">
          <mxGeometry x="118" y="285" width="597" height="50" as="geometry" />
        </mxCell>
        <mxCell id="UjEWYEbTMEZOHwxj7fLX-10" value="" style="edgeStyle=orthogonalEdgeStyle;rounded=0;orthogonalLoop=1;jettySize=auto;html=1;" edge="1" parent="WIyWlLk6GJQsqaUBKTNV-1" source="UjEWYEbTMEZOHwxj7fLX-7" target="UjEWYEbTMEZOHwxj7fLX-9">
          <mxGeometry relative="1" as="geometry" />
        </mxCell>
        <mxCell id="UjEWYEbTMEZOHwxj7fLX-12" style="edgeStyle=orthogonalEdgeStyle;rounded=0;orthogonalLoop=1;jettySize=auto;html=1;exitX=0;exitY=0.5;exitDx=0;exitDy=0;exitPerimeter=0;entryX=0;entryY=0.5;entryDx=0;entryDy=0;" edge="1" parent="WIyWlLk6GJQsqaUBKTNV-1" source="UjEWYEbTMEZOHwxj7fLX-7" target="UjEWYEbTMEZOHwxj7fLX-5">
          <mxGeometry relative="1" as="geometry" />
        </mxCell>
        <mxCell id="UjEWYEbTMEZOHwxj7fLX-13" value="否" style="edgeLabel;html=1;align=center;verticalAlign=middle;resizable=0;points=[];" vertex="1" connectable="0" parent="UjEWYEbTMEZOHwxj7fLX-12">
          <mxGeometry x="-0.6767" relative="1" as="geometry">
            <mxPoint x="-2.5" y="-9.5" as="offset" />
          </mxGeometry>
        </mxCell>
        <mxCell id="UjEWYEbTMEZOHwxj7fLX-7" value="&lt;font style=&quot;font-size: 14px&quot;&gt;是否满足迭代退出条件&lt;br&gt;目标函数变化率&amp;lt;10&lt;sup&gt;-10&lt;/sup&gt;&lt;/font&gt;" style="strokeWidth=2;html=1;shape=mxgraph.flowchart.decision;whiteSpace=wrap;" vertex="1" parent="WIyWlLk6GJQsqaUBKTNV-1">
          <mxGeometry x="283.5" y="367" width="266" height="75" as="geometry" />
        </mxCell>
        <mxCell id="UjEWYEbTMEZOHwxj7fLX-15" value="" style="edgeStyle=orthogonalEdgeStyle;rounded=0;orthogonalLoop=1;jettySize=auto;html=1;" edge="1" parent="WIyWlLk6GJQsqaUBKTNV-1" source="UjEWYEbTMEZOHwxj7fLX-9" target="UjEWYEbTMEZOHwxj7fLX-14">
          <mxGeometry relative="1" as="geometry" />
        </mxCell>
        <mxCell id="UjEWYEbTMEZOHwxj7fLX-9" value="&lt;font style=&quot;font-size: 14px&quot;&gt;输出稀疏表示&lt;/font&gt;&lt;font style=&quot;font-size: 14px&quot;&gt;Z&lt;sub&gt;1&lt;/sub&gt;&#39;、Z&lt;sub&gt;2&lt;/sub&gt;&lt;/font&gt;&lt;span style=&quot;font-size: 14px&quot;&gt;&#39;&lt;/span&gt;" style="shape=parallelogram;html=1;strokeWidth=2;perimeter=parallelogramPerimeter;whiteSpace=wrap;rounded=1;arcSize=12;size=0.23;" vertex="1" parent="WIyWlLk6GJQsqaUBKTNV-1">
          <mxGeometry x="289.5" y="478" width="254" height="40" as="geometry" />
        </mxCell>
        <mxCell id="UjEWYEbTMEZOHwxj7fLX-11" value="是" style="text;html=1;align=center;verticalAlign=middle;resizable=0;points=[];autosize=1;" vertex="1" parent="WIyWlLk6GJQsqaUBKTNV-1">
          <mxGeometry x="416" y="448" width="22" height="18" as="geometry" />
        </mxCell>
        <mxCell id="UjEWYEbTMEZOHwxj7fLX-14" value="&lt;font style=&quot;font-size: 14px&quot;&gt;结束&lt;/font&gt;" style="strokeWidth=2;html=1;shape=mxgraph.flowchart.terminator;whiteSpace=wrap;" vertex="1" parent="WIyWlLk6GJQsqaUBKTNV-1">
          <mxGeometry x="368" y="550" width="97" height="40" as="geometry" />
        </mxCell>
      </root>
    </mxGraphModel>
  </diagram>
</mxfile>
